# xmcd CD database file generated by Grip 2.95
# 
# Track frame offsets:
#       150
#       16060
#       35017
#       81367
#       94447
#       121780
#       139885
#       164357
#       178055
# 
# Disc length: 2597 seconds
# 
# Revision: 3
# Processed by: cddbd v1.4b42PL0 Copyright (c) Steve Scherf et al.
# Submitted via: Grip 2.95
# 
DISCID=740a2309
DTITLE=Jandek - Six and Six
DYEAR=1900
DGENRE=
TTITLE0=Feathered Drums
TTITLE1=Point Judith
TTITLE2=I Knew You Would Leave
TTITLE3=Can I See Your Clock
TTITLE4=Wild Strawberries
TTITLE5=Forgive Me
TTITLE6=Hilltop Serenade
TTITLE7=You're the Best One
TTITLE8=Delinquent Words
EXTD=
EXTT0=
EXTT1=
EXTT2=
EXTT3=
EXTT4=
EXTT5=
EXTT6=
EXTT7=
EXTT8=
PLAYORDER=
